<?xml version="1.0" encoding="UTF-8"?>
<svg xmlns="http://www.w3.org/2000/svg" xmlns:xlink="http://www.w3.org/1999/xlink" width="841.89pt" height="595.28pt" viewBox="0 0 841.89 595.28" version="1.1">
<g id="surface1">
<path style=" stroke:none;fill-rule:nonzero;fill:rgb(1.199341%,40.39917%,21.998596%);fill-opacity:1;" d="M 0 595.28125 L 841.890625 595.28125 L 841.890625 0 L 0 0 Z M 0 595.28125 "/>
<path style=" stroke:none;fill-rule:nonzero;fill:rgb(100%,100%,100%);fill-opacity:1;" d="M 647.082031 495.082031 C 647.082031 498.71875 644.136719 501.667969 640.5 501.667969 C 636.863281 501.667969 633.914063 498.71875 633.914063 495.082031 C 633.914063 491.445313 636.863281 488.5 640.5 488.5 C 644.136719 488.5 647.082031 491.445313 647.082031 495.082031 "/>
<path style=" stroke:none;fill-rule:nonzero;fill:rgb(100%,100%,100%);fill-opacity:1;" d="M 676.148438 452 L 611.429688 452 C 614.929688 446.21875 616.117188 439.828125 615.699219 434.714844 C 615.34375 430.304688 611.875 426.722656 607.210938 426.859375 C 602.835938 426.984375 599.242188 430.527344 599.238281 434.707031 C 599.234375 438.582031 602.167969 441.792969 606.027344 442.445313 C 604.570313 447.480469 601.292969 451.199219 597.335938 452 L 165.5 452 C 170 465.25 184 474 214 474 L 600.933594 474 C 596.023438 481.039063 594.828125 485.351563 595.535156 491.566406 C 596.097656 496.519531 599.59375 499.445313 604.257813 499.308594 C 608.632813 499.179688 612.226563 495.636719 612.230469 491.457031 C 612.234375 487.585938 609.300781 484.371094 605.441406 483.71875 C 607.089844 478.019531 611.070313 474 615.734375 474 L 660.445313 474 C 663.894531 474.097656 669.640625 473.773438 674.519531 477.132813 C 679.402344 480.496094 681.894531 487.4375 676.582031 491.015625 C 671.269531 494.59375 672.894531 497.851563 674.628906 499.3125 C 676.363281 500.773438 681.894531 499.582031 686.667969 497.519531 C 691.4375 495.460938 700.695313 486.074219 700.761719 474 C 700.824219 463.265625 690.894531 452 676.148438 452 "/>
<path style=" stroke:none;fill-rule:nonzero;fill:rgb(100%,100%,100%);fill-opacity:1;" d="M 673.558594 497.25 L 609.765625 497.25 C 609.234375 497.25 608.800781 496.816406 608.800781 496.285156 L 608.800781 494.632813 C 608.800781 494.097656 609.234375 493.667969 609.765625 493.667969 L 673.558594 493.667969 C 674.09375 493.667969 674.523438 494.097656 674.523438 494.632813 L 674.523438 496.285156 C 674.523438 496.816406 674.09375 497.25 673.558594 497.25 "/>
<path style=" stroke:none;fill-rule:nonzero;fill:rgb(100%,100%,100%);fill-opacity:1;" d="M 673.214844 146.484375 C 673.292969 147.15625 674 147.566406 674.640625 147.351563 C 678.386719 146.113281 679.78125 146.035156 684.226563 147.285156 C 688.820313 148.585938 677.894531 153.082031 671.371094 155.800781 C 671.03125 155.941406 671.097656 156.433594 671.460938 156.492188 L 676.261719 157.238281 C 676.574219 157.285156 676.882813 157.277344 677.1875 157.199219 C 679.417969 156.660156 688.933594 153.785156 694.976563 143.113281 C 695.558594 142.09375 695.304688 140.792969 694.378906 140.070313 C 690.484375 137.011719 684.742188 136.015625 682.097656 136.015625 C 679.089844 136.015625 678.238281 135.898438 676.210938 138.019531 C 673.8125 140.523438 672.882813 143.683594 673.214844 146.484375 "/>
<path style=" stroke:none;fill-rule:nonzero;fill:rgb(100%,100%,100%);fill-opacity:1;" d="M 537.816406 146.976563 C 537.894531 147.648438 538.601563 148.058594 539.242188 147.847656 C 542.988281 146.605469 544.382813 146.527344 548.828125 147.78125 C 553.421875 149.074219 542.496094 153.574219 535.972656 156.289063 C 535.632813 156.433594 535.699219 156.925781 536.0625 156.984375 L 540.863281 157.730469 C 541.175781 157.777344 541.484375 157.769531 541.789063 157.695313 C 544.019531 157.152344 553.535156 154.277344 559.578125 143.605469 C 560.160156 142.585938 559.90625 141.285156 558.984375 140.5625 C 555.085938 137.503906 549.34375 136.507813 546.699219 136.507813 C 543.691406 136.507813 542.84375 136.390625 540.8125 138.511719 C 538.414063 141.015625 537.484375 144.179688 537.816406 146.976563 "/>
<path style=" stroke:none;fill-rule:nonzero;fill:rgb(100%,100%,100%);fill-opacity:1;" d="M 488.089844 146.976563 C 488.167969 147.648438 488.875 148.058594 489.515625 147.847656 C 493.261719 146.605469 494.652344 146.527344 499.097656 147.78125 C 503.691406 149.074219 492.769531 153.574219 486.246094 156.289063 C 485.90625 156.433594 485.972656 156.925781 486.335938 156.984375 L 491.136719 157.730469 C 491.445313 157.777344 491.757813 157.769531 492.0625 157.695313 C 494.289063 157.152344 503.808594 154.277344 509.851563 143.605469 C 510.429688 142.585938 510.179688 141.285156 509.253906 140.5625 C 505.359375 137.503906 499.617188 136.507813 496.96875 136.507813 C 493.964844 136.507813 493.113281 136.390625 491.085938 138.511719 C 488.6875 141.015625 487.757813 144.179688 488.089844 146.976563 "/>
<path style=" stroke:none;fill-rule:nonzero;fill:rgb(100%,100%,100%);fill-opacity:1;" d="M 430.726563 146.730469 C 430.808594 147.402344 431.515625 147.8125 432.15625 147.601563 C 435.902344 146.359375 437.292969 146.28125 441.738281 147.535156 C 446.332031 148.828125 435.410156 153.328125 428.886719 156.046875 C 428.546875 156.1875 428.613281 156.679688 428.976563 156.738281 L 433.777344 157.484375 C 434.085938 157.53125 434.398438 157.523438 434.703125 157.449219 C 436.929688 156.90625 446.449219 154.03125 452.492188 143.359375 C 453.070313 142.339844 452.820313 141.039063 451.894531 140.316406 C 447.996094 137.257813 442.257813 136.261719 439.609375 136.261719 C 436.605469 136.261719 435.753906 136.144531 433.722656 138.265625 C 431.328125 140.769531 430.394531 143.933594 430.726563 146.730469 "/>
<path style=" stroke:none;fill-rule:nonzero;fill:rgb(100%,100%,100%);fill-opacity:1;" d="M 122.3125 256.398438 C 122.394531 257.070313 123.101563 257.480469 123.742188 257.269531 C 127.488281 256.03125 128.878906 255.949219 133.324219 257.203125 C 137.917969 258.5 126.996094 262.996094 120.472656 265.714844 C 120.132813 265.855469 120.199219 266.347656 120.5625 266.40625 L 125.363281 267.152344 C 125.671875 267.199219 125.984375 267.191406 126.289063 267.117188 C 128.515625 266.574219 138.035156 263.699219 144.078125 253.027344 C 144.65625 252.007813 144.40625 250.710938 143.480469 249.984375 C 139.585938 246.925781 133.84375 245.929688 131.195313 245.929688 C 128.191406 245.929688 127.339844 245.8125 125.308594 247.933594 C 122.914063 250.441406 121.980469 253.601563 122.3125 256.398438 "/>
<path style=" stroke:none;fill-rule:nonzero;fill:rgb(100%,100%,100%);fill-opacity:1;" d="M 689.582031 208.371094 C 696.640625 212.578125 698.175781 226.210938 695.453125 241.738281 C 695.40625 242.019531 695.785156 242.167969 695.925781 241.917969 C 704.265625 227.4375 704.214844 207.484375 689.746094 195.054688 C 689.359375 194.722656 688.757813 195.007813 688.757813 195.519531 L 688.757813 206.867188 C 688.757813 207.476563 689.058594 208.058594 689.582031 208.371094 "/>
<path style=" stroke:none;fill-rule:nonzero;fill:rgb(100%,100%,100%);fill-opacity:1;" d="M 616.316406 269.425781 C 623.375 273.632813 624.910156 287.261719 622.191406 302.789063 C 622.140625 303.074219 622.519531 303.222656 622.664063 302.972656 C 631 288.488281 630.949219 268.539063 616.484375 256.109375 C 616.097656 255.773438 615.492188 256.0625 615.492188 256.570313 L 615.492188 267.921875 C 615.492188 268.53125 615.792969 269.113281 616.316406 269.425781 "/>
<path style=" stroke:none;fill-rule:nonzero;fill:rgb(100%,100%,100%);fill-opacity:1;" d="M 343.792969 153.195313 C 350.851563 157.40625 352.386719 171.035156 349.664063 186.5625 C 349.613281 186.847656 349.996094 186.996094 350.140625 186.746094 C 358.476563 172.261719 358.421875 152.3125 343.957031 139.882813 C 343.570313 139.546875 342.96875 139.835938 342.96875 140.34375 L 342.96875 151.695313 C 342.96875 152.304688 343.269531 152.886719 343.792969 153.195313 "/>
<path style=" stroke:none;fill-rule:nonzero;fill:rgb(100%,100%,100%);fill-opacity:1;" d="M 176.175781 155.59375 C 183.234375 159.800781 184.769531 173.429688 182.046875 188.960938 C 181.996094 189.242188 182.378906 189.390625 182.523438 189.140625 C 190.859375 174.65625 190.804688 154.707031 176.339844 142.277344 C 175.953125 141.941406 175.351563 142.230469 175.351563 142.738281 L 175.351563 154.089844 C 175.351563 154.699219 175.652344 155.28125 176.175781 155.59375 "/>
<path style=" stroke:none;fill-rule:nonzero;fill:rgb(100%,100%,100%);fill-opacity:1;" d="M 606.414063 232.3125 C 601.152344 237.769531 593.710938 229.125 610.847656 204.675781 C 611.28125 204.058594 610.503906 203.34375 609.917969 203.816406 C 588.175781 221.5 588.769531 245.234375 597.210938 247.46875 C 601.691406 248.65625 606.488281 240.753906 607.75 233.03125 C 607.871094 232.285156 606.9375 231.765625 606.414063 232.3125 "/>
<path style=" stroke:none;fill-rule:nonzero;fill:rgb(100%,100%,100%);fill-opacity:1;" d="M 317.15625 312.289063 C 311.894531 317.746094 304.453125 309.101563 321.589844 284.652344 C 322.023438 284.035156 321.246094 283.320313 320.660156 283.792969 C 298.917969 301.476563 299.511719 325.210938 307.949219 327.445313 C 312.433594 328.632813 317.230469 320.730469 318.492188 313.007813 C 318.613281 312.261719 317.679688 311.742188 317.15625 312.289063 "/>
<path style=" stroke:none;fill-rule:nonzero;fill:rgb(100%,100%,100%);fill-opacity:1;" d="M 262.082031 342.9375 C 256.820313 348.398438 249.378906 339.753906 266.515625 315.304688 C 266.949219 314.6875 266.171875 313.96875 265.585938 314.445313 C 243.84375 332.128906 244.4375 355.859375 252.878906 358.09375 C 257.359375 359.28125 262.15625 351.382813 263.417969 343.65625 C 263.539063 342.910156 262.605469 342.394531 262.082031 342.9375 "/>
<path style=" stroke:none;fill-rule:nonzero;fill:rgb(100%,100%,100%);fill-opacity:1;" d="M 579.117188 372.152344 C 573.855469 377.609375 566.414063 368.964844 583.550781 344.515625 C 583.980469 343.898438 583.207031 343.183594 582.621094 343.65625 C 560.878906 361.339844 561.472656 385.074219 569.910156 387.308594 C 574.394531 388.496094 579.191406 380.59375 580.453125 372.871094 C 580.574219 372.125 579.640625 371.605469 579.117188 372.152344 "/>
<path style=" stroke:none;fill-rule:nonzero;fill:rgb(100%,100%,100%);fill-opacity:1;" d="M 470.082031 289.277344 C 465.332031 293.730469 457.347656 289.167969 474.082031 266.71875 C 474.464844 266.207031 473.742188 265.589844 473.246094 266.015625 C 456.121094 280.640625 454.144531 299.878906 461.773438 301.648438 C 467.296875 302.929688 469.363281 296.40625 471.289063 289.863281 C 471.464844 289.269531 470.554688 288.832031 470.082031 289.277344 "/>
<path style=" stroke:none;fill-rule:nonzero;fill:rgb(100%,100%,100%);fill-opacity:1;" d="M 381.484375 377.875 C 376.734375 382.328125 368.75 377.765625 385.484375 355.316406 C 385.867188 354.804688 385.144531 354.1875 384.648438 354.613281 C 367.523438 369.238281 365.546875 388.476563 373.175781 390.246094 C 378.699219 391.527344 380.765625 385.003906 382.691406 378.460938 C 382.867188 377.867188 381.957031 377.429688 381.484375 377.875 "/>
<path style=" stroke:none;fill-rule:nonzero;fill:rgb(100%,100%,100%);fill-opacity:1;" d="M 232.066406 378.832031 C 227.316406 383.285156 219.332031 378.726563 236.066406 356.273438 C 236.449219 355.761719 235.730469 355.144531 235.230469 355.570313 C 218.105469 370.199219 216.128906 389.433594 223.757813 391.203125 C 229.28125 392.484375 231.347656 385.960938 233.273438 379.417969 C 233.445313 378.824219 232.539063 378.386719 232.066406 378.832031 "/>
<path style=" stroke:none;fill-rule:nonzero;fill:rgb(100%,100%,100%);fill-opacity:1;" d="M 516.050781 239.835938 C 511.304688 244.292969 503.316406 239.730469 520.054688 217.277344 C 520.433594 216.765625 519.714844 216.152344 519.214844 216.574219 C 502.089844 231.203125 500.113281 250.441406 507.742188 252.210938 C 513.265625 253.492188 515.335938 246.964844 517.257813 240.425781 C 517.433594 239.828125 516.523438 239.390625 516.050781 239.835938 "/>
<path style=" stroke:none;fill-rule:nonzero;fill:rgb(100%,100%,100%);fill-opacity:1;" d="M 566.039063 291.148438 C 560.777344 296.605469 553.335938 287.964844 570.472656 263.511719 C 570.90625 262.894531 570.132813 262.179688 569.546875 262.652344 C 547.804688 280.339844 548.394531 304.070313 556.835938 306.304688 C 561.320313 307.492188 566.113281 299.589844 567.378906 291.867188 C 567.5 291.121094 566.566406 290.601563 566.039063 291.148438 "/>
<path style=" stroke:none;fill-rule:nonzero;fill:rgb(100%,100%,100%);fill-opacity:1;" d="M 556.441406 220.246094 C 551.179688 225.707031 543.734375 217.0625 560.871094 192.613281 C 561.304688 191.996094 560.53125 191.277344 559.945313 191.753906 C 538.203125 209.4375 538.792969 233.171875 547.234375 235.40625 C 551.71875 236.59375 556.515625 228.691406 557.777344 220.96875 C 557.898438 220.222656 556.964844 219.703125 556.441406 220.246094 "/>
<path style=" stroke:none;fill-rule:nonzero;fill:rgb(100%,100%,100%);fill-opacity:1;" d="M 132.546875 145.519531 C 134.425781 145.859375 136.328125 146.019531 138.230469 145.988281 C 136.921875 144.316406 135.238281 143.0625 133.421875 142.066406 C 133.121094 143.210938 132.832031 144.363281 132.546875 145.519531 M 127.429688 140.804688 C 126.769531 142.101563 125.238281 143.773438 126.457031 145.21875 C 128.019531 145.515625 129.601563 145.519531 131.175781 145.570313 C 131.046875 143.171875 129.730469 141.238281 127.429688 140.804688 M 123.132813 139.726563 C 123.363281 137.109375 124.039063 132.734375 127.546875 133.578125 C 134.554688 135.488281 143.996094 141.453125 140.550781 150.46875 C 137.136719 153.496094 131.398438 148.933594 129.109375 153.515625 C 126.714844 157.140625 123.019531 159.492188 120.476563 162.992188 C 121.5 164.027344 122.632813 165.125 124.117188 165.289063 C 133.785156 165.800781 143.335938 161.398438 149.554688 153.6875 C 145.851563 165.523438 132.53125 171.929688 121.246094 170.589844 C 117.597656 170.472656 117.480469 165.933594 118.746094 163.308594 C 120.175781 157.945313 125.085938 155.191406 128.257813 151.140625 C 122.265625 152.6875 122.355469 145.464844 124.441406 141.648438 C 124.003906 141.003906 123.570313 140.363281 123.132813 139.726563 "/>
<path style=" stroke:none;fill-rule:nonzero;fill:rgb(100%,100%,100%);fill-opacity:1;" d="M 314.855469 143.902344 C 314.652344 145.074219 314.457031 146.246094 314.25 147.414063 C 315.476563 148.121094 316.742188 149.441406 318.277344 148.796875 C 317.539063 146.90625 316.3125 145.292969 314.855469 143.902344 M 308.425781 144.074219 C 308.785156 146.050781 311.191406 145.78125 312.621094 146.546875 C 312.824219 145.199219 313.246094 143.828125 312.90625 142.46875 C 311.234375 142.175781 309.550781 142.835938 308.425781 144.074219 M 310.667969 135.429688 C 313.394531 134.570313 314.710938 137.269531 316.421875 138.753906 C 320.277344 142.585938 322.804688 149.769531 317.976563 153.878906 C 315.746094 154.085938 313.808594 153.054688 311.992188 151.902344 C 307.34375 158.378906 300.675781 163.507813 293.125 166.132813 C 288.367188 167.601563 283.992188 170.554688 279.054688 171.179688 C 287.453125 166.179688 296.347656 162.003906 304.28125 156.261719 C 306.511719 154.949219 308.773438 153.253906 310.054688 150.996094 C 308.824219 150.546875 307.414063 150.253906 306.457031 149.320313 C 305.429688 146.148438 307.226563 142.949219 309.554688 140.882813 C 308.761719 139.035156 310.089844 137.160156 310.667969 135.429688 "/>
<path style=" stroke:none;fill-rule:nonzero;fill:rgb(100%,100%,100%);fill-opacity:1;" d="M 395.105469 150.402344 C 396.367188 155.261719 399.261719 161.605469 395.585938 166.339844 C 394.652344 167.1875 393.441406 167.476563 392.253906 167.597656 C 390.304688 167.085938 389.277344 165.074219 388.878906 163.140625 C 389.117188 167.558594 383.183594 172.171875 380.644531 167.234375 C 380.453125 166.769531 380.273438 166.300781 380.109375 165.835938 C 379.625 162.78125 380.824219 159.675781 379.722656 156.714844 C 379.40625 155.914063 380.035156 155.21875 380.300781 154.515625 C 380.824219 153.757813 380.796875 152.632813 381.402344 151.992188 C 383.824219 153.207031 381.675781 160.378906 381.898438 162.328125 C 382.71875 165.457031 387.941406 164.550781 387.992188 161.429688 C 388.800781 157.347656 384.773438 153.246094 388.53125 150.804688 C 390.480469 153.089844 390.109375 156.230469 390.390625 159.050781 C 390.566406 161.625 393.652344 164.125 395.734375 162.058594 C 394.402344 154.785156 391.5625 154.789063 395.105469 150.402344 "/>
<path style=" stroke:none;fill-rule:nonzero;fill:rgb(100%,100%,100%);fill-opacity:1;" d="M 508.503906 183.769531 C 509.976563 189.160156 513.359375 196.203125 509.058594 201.457031 C 507.96875 202.394531 506.554688 202.71875 505.164063 202.851563 C 502.886719 202.28125 501.6875 200.050781 501.222656 197.90625 C 501.503906 202.804688 494.566406 207.929688 491.597656 202.449219 C 491.378906 201.933594 491.164063 201.410156 490.972656 200.898438 C 490.40625 197.507813 491.808594 194.058594 490.519531 190.777344 C 490.152344 189.890625 490.886719 189.117188 491.195313 188.335938 C 491.808594 187.492188 491.773438 186.246094 492.484375 185.539063 C 495.316406 186.882813 492.804688 194.84375 493.066406 197.007813 C 494.023438 200.476563 500.125 199.46875 500.1875 196.007813 C 501.128906 191.480469 496.421875 186.929688 500.816406 184.21875 C 503.09375 186.753906 502.660156 190.238281 502.988281 193.367188 C 503.195313 196.222656 506.800781 198.996094 509.234375 196.703125 C 507.679688 188.636719 504.355469 188.640625 508.503906 183.769531 "/>
<path style=" stroke:none;fill-rule:nonzero;fill:rgb(100%,100%,100%);fill-opacity:1;" d="M 404.160156 259.699219 C 405.632813 265.089844 409.019531 272.128906 404.71875 277.382813 C 403.628906 278.324219 402.210938 278.644531 400.824219 278.78125 C 398.546875 278.210938 397.347656 275.976563 396.882813 273.832031 C 397.160156 278.734375 390.226563 283.855469 387.257813 278.375 C 387.035156 277.859375 386.824219 277.339844 386.628906 276.824219 C 386.0625 273.433594 387.46875 269.984375 386.179688 266.703125 C 385.808594 265.816406 386.546875 265.042969 386.855469 264.261719 C 387.464844 263.421875 387.433594 262.175781 388.144531 261.464844 C 390.972656 262.8125 388.464844 270.769531 388.722656 272.933594 C 389.679688 276.402344 395.78125 275.398438 395.847656 271.933594 C 396.789063 267.40625 392.082031 262.855469 396.472656 260.144531 C 398.753906 262.679688 398.320313 266.164063 398.648438 269.296875 C 398.851563 272.148438 402.460938 274.925781 404.890625 272.632813 C 403.339844 264.5625 400.015625 264.566406 404.160156 259.699219 "/>
<path style=" stroke:none;fill-rule:nonzero;fill:rgb(100%,100%,100%);fill-opacity:1;" d="M 151.128906 239.238281 C 153.089844 242.246094 156.566406 242.996094 159.519531 244.394531 C 159.046875 241.5 158.96875 237.863281 156.472656 236.019531 C 154.117188 235.113281 152.257813 237.371094 151.128906 239.238281 M 148.746094 243.785156 C 148.828125 237.40625 150.5625 229.257813 157.289063 227.523438 C 162.605469 231.523438 161.988281 239.464844 161.496094 245.527344 C 166.007813 247.15625 167.703125 251.894531 166.144531 256.542969 C 163.769531 255.863281 161.722656 254.355469 159.566406 253.171875 C 153.351563 267.507813 140.109375 275.566406 128.566406 284.386719 C 125.808594 286.21875 123.621094 289.304688 120.203125 289.730469 C 131.527344 276.121094 147.230469 266.921875 157.53125 252.152344 C 154.167969 250.082031 149.164063 248.675781 148.746094 243.785156 "/>
<path style=" stroke:none;fill-rule:nonzero;fill:rgb(100%,100%,100%);fill-opacity:1;" d="M 431.390625 217.253906 C 432.964844 219.671875 435.757813 220.269531 438.128906 221.394531 C 437.75 219.070313 437.6875 216.148438 435.679688 214.664063 C 433.789063 213.9375 432.292969 215.753906 431.390625 217.253906 M 429.472656 220.90625 C 429.539063 215.78125 430.933594 209.230469 436.339844 207.839844 C 440.609375 211.054688 440.113281 217.433594 439.71875 222.304688 C 443.34375 223.613281 444.703125 227.421875 443.453125 231.15625 C 441.542969 230.609375 439.902344 229.398438 438.167969 228.445313 C 433.171875 239.964844 422.535156 246.441406 413.261719 253.527344 C 411.042969 255 409.285156 257.476563 406.539063 257.820313 C 415.640625 246.890625 428.253906 239.496094 436.53125 227.628906 C 433.828125 225.964844 429.8125 224.835938 429.472656 220.90625 "/>
<path style=" stroke:none;fill-rule:nonzero;fill:rgb(100%,100%,100%);fill-opacity:1;" d="M 178.761719 280.136719 C 182.121094 279.722656 184.714844 283.011719 185.890625 285.78125 C 185.875 288.558594 184.898438 291.34375 183.519531 293.738281 C 181.757813 291.410156 178.566406 286.640625 175.582031 290.179688 C 170.382813 299.976563 171.675781 311.757813 167.664063 321.980469 C 163.992188 315.558594 163.402344 307.019531 158.226563 301.085938 C 157.511719 301.191406 156.792969 301.304688 156.089844 301.410156 C 153.6875 299.660156 151.015625 298.34375 148.542969 296.710938 C 148.277344 293.3125 147.363281 286.082031 152.933594 287.511719 C 162.039063 290.683594 163.941406 301.457031 168.273438 308.8125 C 169.71875 301.859375 170.417969 294.726563 172.589844 287.945313 C 173.800781 284.863281 175.324219 281.226563 178.761719 280.136719 "/>
<path style=" stroke:none;fill-rule:nonzero;fill:rgb(100%,100%,100%);fill-opacity:1;" d="M 468.136719 359.132813 C 469.714844 360.105469 471.363281 360.851563 473.039063 361.5 C 471.863281 359.164063 470.203125 357.21875 468.136719 359.132813 M 462.011719 365.820313 C 465.734375 361.753906 467.160156 352.339844 472.851563 352.488281 C 476.335938 355.683594 477.539063 363.496094 474.285156 367.742188 C 471.050781 368.308594 468.203125 365.6875 465.675781 363.335938 C 462.039063 372.664063 454.496094 376.976563 447.613281 380.691406 C 441.589844 384.226563 434.984375 384.992188 428.648438 387.042969 C 439.65625 379.722656 451.996094 375.730469 462.011719 365.820313 "/>
<path style=" stroke:none;fill-rule:nonzero;fill:rgb(100%,100%,100%);fill-opacity:1;" d="M 573.441406 170.332031 C 572.964844 170.324219 572.597656 170.742188 572.664063 171.214844 C 574.519531 184.21875 596.054688 335.394531 596.785156 344.917969 C 597.53125 354.601563 598.035156 371.050781 593.832031 382.277344 C 593.632813 382.8125 593.050781 383.101563 592.496094 382.964844 L 592.300781 382.914063 C 591.789063 382.789063 591.433594 382.332031 591.441406 381.804688 C 591.511719 377.445313 591.699219 358.246094 589.894531 349.003906 C 587.851563 338.535156 564.121094 160.195313 562.070313 157.558594 L 560.839844 156.417969 L 563.863281 140.226563 C 563.976563 139.617188 564.507813 139.179688 565.128906 139.179688 C 565.648438 139.179688 566.117188 139.492188 566.316406 139.976563 L 578.746094 170.460938 L 578.511719 175.730469 L 575.113281 170.683594 C 574.972656 170.472656 574.730469 170.34375 574.476563 170.339844 "/>
<path style=" stroke:none;fill-rule:nonzero;fill:rgb(100%,100%,100%);fill-opacity:1;" d="M 520.769531 139.101563 L 533.445313 169.996094 L 533.445313 174.636719 L 529.21875 169.855469 C 528.964844 169.570313 528.574219 169.445313 528.203125 169.527344 C 527.792969 169.617188 527.523438 170.007813 527.582031 170.425781 L 544.253906 288.21875 C 544.253906 288.21875 545.078125 302.148438 543.941406 316.765625 C 543.210938 326.199219 540.636719 337.238281 535.460938 345.445313 C 533.089844 349.207031 531.164063 351.460938 529.253906 353.578125 C 525.214844 358.050781 520.4375 362.855469 513.609375 366.613281 C 506.214844 370.6875 495.4375 373.609375 477.734375 376.351563 C 477.238281 376.429688 476.777344 376.042969 476.777344 375.539063 L 476.777344 375.226563 C 476.777344 374.898438 476.964844 374.605469 477.265625 374.476563 C 481.773438 372.507813 516.507813 356.765625 533.648438 331.527344 C 539.707031 321.105469 540.222656 317.550781 539.777344 312.253906 C 538.835938 301.023438 537.882813 298.457031 536.269531 285.550781 L 517.714844 158.300781 L 515.902344 156.6875 L 518.800781 139.296875 C 518.871094 138.859375 519.25 138.539063 519.695313 138.539063 L 519.929688 138.539063 C 520.296875 138.539063 520.628906 138.761719 520.769531 139.101563 "/>
<path style=" stroke:none;fill-rule:nonzero;fill:rgb(100%,100%,100%);fill-opacity:1;" d="M 445.660156 190.339844 C 445.636719 190.597656 445.707031 190.851563 445.867188 191.058594 C 448.25 194.175781 467.5625 219.390625 473.570313 227.234375 C 479.980469 235.601563 502.765625 263.015625 506.679688 267.824219 C 510.597656 272.628906 519.496094 282.421875 522.878906 287.9375 C 526.261719 293.457031 529.109375 298.441406 530.179688 302.535156 C 531.175781 306.355469 531.707031 318.535156 531.484375 323.621094 C 531.460938 324.175781 531 324.609375 530.445313 324.609375 C 529.898438 324.609375 529.445313 324.195313 529.40625 323.648438 C 529.15625 320.160156 525.90625 306.09375 516.648438 295.414063 C 511.613281 289.605469 489.949219 263.550781 486.921875 259.8125 C 483.894531 256.074219 462.355469 230.261719 458.617188 225.277344 C 454.878906 220.292969 432.984375 188.429688 432.09375 187.003906 C 431.460938 185.992188 430.644531 184.253906 430.230469 183.339844 C 430.0625 182.96875 429.691406 182.734375 429.285156 182.734375 L 428.535156 182.734375 L 429.511719 165.515625 C 429.5625 164.984375 430.011719 164.574219 430.546875 164.574219 L 430.964844 164.574219 C 431.230469 164.574219 431.492188 164.679688 431.683594 164.867188 L 454.609375 186.925781 C 454.785156 187.09375 454.894531 187.3125 454.921875 187.554688 L 455.234375 190.210938 L 446.894531 188.949219 C 446.300781 188.859375 445.753906 189.289063 445.699219 189.886719 "/>
<path style=" stroke:none;fill-rule:nonzero;fill:rgb(100%,100%,100%);fill-opacity:1;" d="M 704.023438 139.742188 L 716.695313 170.636719 L 716.695313 175.273438 L 712.46875 170.496094 C 712.214844 170.210938 711.828125 170.085938 711.453125 170.164063 C 711.046875 170.257813 710.773438 170.648438 710.832031 171.0625 L 727.503906 288.859375 C 727.503906 288.859375 728.332031 302.789063 727.195313 317.40625 C 726.460938 326.839844 723.886719 337.878906 718.714844 346.082031 C 716.339844 349.847656 714.417969 352.101563 712.507813 354.21875 C 708.464844 358.691406 703.6875 363.496094 696.863281 367.253906 C 689.464844 371.324219 678.691406 374.246094 660.988281 376.992188 C 660.488281 377.070313 660.03125 376.683594 660.03125 376.179688 L 660.03125 375.863281 C 660.03125 375.535156 660.21875 375.246094 660.515625 375.113281 C 665.027344 373.144531 699.757813 357.40625 716.898438 332.167969 C 722.957031 321.746094 723.472656 318.1875 723.027344 312.894531 C 722.085938 301.660156 721.136719 299.097656 719.519531 286.1875 L 700.96875 158.941406 L 699.152344 157.328125 L 702.050781 139.9375 C 702.125 139.5 702.503906 139.179688 702.945313 139.179688 L 703.183594 139.179688 C 703.550781 139.179688 703.882813 139.398438 704.023438 139.742188 "/>
<path style=" stroke:none;fill-rule:nonzero;fill:rgb(100%,100%,100%);fill-opacity:1;" d="M 590.640625 139.394531 L 613.699219 161.390625 C 613.871094 161.554688 613.96875 161.78125 613.96875 162.019531 L 613.96875 162.710938 C 613.96875 163.1875 613.578125 163.574219 613.101563 163.574219 L 604.875 163.574219 L 604.875 164.539063 C 604.875 164.539063 624.710938 190.574219 630.496094 197.597656 C 636.28125 204.621094 657.21875 229.417969 662.726563 235.890625 C 668.238281 242.363281 694.914063 273.828125 698.679688 278.179688 C 705.832031 286.4375 711.894531 294.972656 713.871094 303.484375 C 715.175781 309.101563 714.796875 325.425781 714.796875 325.425781 C 714.632813 326.242188 713.75 325.679688 713.441406 325 C 713.441406 325 713.375 323.015625 712.730469 319.363281 C 712.257813 316.699219 711.726563 313.230469 710.597656 310.679688 C 707.921875 304.640625 707.144531 302.570313 700.503906 295.152344 C 694.378906 288.3125 661.5625 250.460938 658.046875 246.773438 C 654.75 243.316406 623.179688 204.375 618.371094 198.410156 C 610.847656 189.074219 594.308594 165.003906 588.761719 155.863281 L 587.804688 154.816406 L 588.835938 139.914063 C 588.863281 139.5 589.210938 139.179688 589.625 139.179688 L 590.097656 139.179688 C 590.300781 139.179688 590.496094 139.257813 590.640625 139.394531 "/>
<path style=" stroke:none;fill-rule:nonzero;fill:rgb(100%,100%,100%);fill-opacity:1;" d="M 659.453125 139.523438 L 672.367188 170.238281 C 672.460938 170.460938 672.507813 170.699219 672.507813 170.941406 C 672.507813 172.636719 670.386719 173.402344 669.304688 172.097656 L 667.53125 169.964844 L 666.515625 169.964844 L 683.167969 292.113281 C 683.167969 292.113281 684.183594 300.640625 684.285156 303.992188 C 684.355469 306.246094 684.601563 311.40625 684.234375 317.015625 C 683.753906 324.300781 682.328125 331.949219 680.960938 334.914063 C 680.910156 335.019531 680.851563 335.109375 680.773438 335.199219 C 680.617188 335.390625 680.3125 335.726563 679.960938 336.003906 L 679.199219 336.417969 C 678.847656 336.609375 678.425781 336.34375 678.441406 335.945313 L 678.492188 334.789063 C 678.492188 334.757813 678.496094 334.730469 678.496094 334.699219 C 678.484375 333.726563 678.332031 317.515625 678.15625 315.035156 C 677.917969 311.71875 657.265625 168.101563 656.015625 159.410156 C 655.976563 159.136719 655.875 158.882813 655.714844 158.652344 L 655.257813 157.984375 C 654.988281 157.59375 654.882813 157.113281 654.964844 156.648438 L 657.90625 139.648438 C 657.953125 139.375 658.1875 139.179688 658.464844 139.179688 L 658.933594 139.179688 C 659.160156 139.179688 659.363281 139.316406 659.453125 139.523438 "/>
<path style=" stroke:none;fill-rule:nonzero;fill:rgb(100%,100%,100%);fill-opacity:1;" d="M 677.378906 351.546875 L 674.664063 358.136719 C 673.011719 358.394531 671.5625 358.785156 670.316406 359.300781 L 668.203125 360.355469 L 666.414063 361.15625 C 665.929688 361.363281 664.011719 363.039063 660.652344 366.183594 L 659.464844 367.050781 L 658.492188 367.886719 C 658.355469 367.027344 658.730469 365.738281 659.613281 364.027344 C 660.363281 362.710938 661.558594 361.335938 663.195313 359.902344 L 663.949219 359.304688 C 661.257813 359.355469 659.730469 359.328125 659.371094 359.226563 C 657.339844 358.933594 656.214844 358.125 656.007813 356.796875 C 655.539063 353.832031 656.15625 350.667969 657.859375 347.304688 C 659.914063 343.355469 662.925781 341.066406 666.902344 340.4375 C 667.789063 340.300781 668.761719 340.546875 669.816406 341.179688 C 670.925781 341.992188 671.570313 342.945313 671.742188 344.035156 L 669.449219 349.117188 L 667.820313 348.132813 C 667.105469 347.792969 666.386719 347.558594 665.667969 347.433594 C 664.949219 347.308594 664.382813 347.25 663.964844 347.261719 C 663.414063 347.347656 662.980469 347.484375 662.667969 347.667969 C 662.34375 347.796875 661.902344 348.121094 661.347656 348.636719 C 660.351563 349.324219 659.921875 350.113281 660.0625 350.996094 C 660.21875 351.988281 661.863281 352.527344 664.992188 352.621094 L 670.410156 352.40625 L 673.734375 352.003906 "/>
<path style=" stroke:none;fill-rule:nonzero;fill:rgb(100%,100%,100%);fill-opacity:1;" d="M 629.558594 139.179688 L 642.75 170.519531 L 642.75 175.4375 L 638.171875 170.039063 C 638.109375 169.964844 638.015625 169.921875 637.917969 169.921875 L 636.871094 169.921875 C 636.871094 169.921875 654.5 295.703125 654.738281 300.257813 C 654.871094 302.792969 655.105469 307.601563 655.023438 312.316406 C 654.953125 316.082031 654.621094 322.679688 654.621094 322.679688 C 654.738281 329.394531 648.984375 345.703125 642.390625 353.015625 C 635.796875 360.332031 628.722656 358.890625 626.082031 358.890625 C 623.445313 358.890625 612.414063 356.972656 607.378906 347.742188 C 602.339844 338.507813 598.914063 326.558594 598.144531 324.960938 C 597.371094 323.359375 594.90625 318.84375 590.589844 318.722656 C 586.273438 318.605469 580.417969 320.820313 576.683594 325.199219 C 573.023438 329.484375 566.84375 340.3125 562.292969 353.015625 C 559.78125 360.019531 556.605469 372.3125 551.972656 381.691406 C 550.175781 385.335938 544.992188 395.914063 538.796875 395.933594 C 534.003906 395.949219 529.171875 390.796875 524.894531 383.726563 C 522.800781 380.265625 518.753906 367.265625 517.6875 354.886719 C 516.453125 340.609375 518.382813 326.9375 518.765625 326.039063 L 520.90625 324.410156 C 521.027344 324.894531 518.855469 336.800781 520.0625 348.785156 C 521.277344 360.855469 527.425781 372.335938 530.277344 374.839844 C 532.878906 377.125 536.4375 379.679688 539.765625 378.351563 C 543.128906 377.007813 546.21875 371.792969 547.304688 369.5625 C 549.464844 365.128906 563.460938 329.199219 565.769531 325.078125 C 572.453125 313.148438 577.035156 307.648438 582.195313 305.054688 C 589.242188 301.515625 593.828125 301.695313 595.867188 302.65625 C 597.90625 303.617188 601.261719 306.375 605.460938 316.925781 C 609.65625 327.476563 610.496094 330.953125 613.613281 335.75 C 615.09375 338.027344 619.113281 340.886719 623.996094 341.835938 C 629.394531 342.882813 635.730469 341.855469 638.3125 340.785156 C 643.230469 338.746094 646.585938 332.394531 648.503906 328.4375 C 648.503906 328.4375 648.625 325.558594 648.625 323.398438 C 648.625 321.242188 648.503906 317.40625 648.023438 314.527344 C 647.546875 311.648438 626.5625 158.410156 626.5625 158.410156 L 625.121094 157.570313 L 628.359375 139.179688 C 628.792969 138.957031 629.191406 138.96875 629.558594 139.179688 "/>
<path style=" stroke:none;fill-rule:nonzero;fill:rgb(100%,100%,100%);fill-opacity:1;" d="M 408.730469 355.320313 C 409.914063 342.703125 412.351563 339.953125 418.285156 333.769531 C 423.117188 328.734375 430.589844 325.648438 431.839844 325.148438 C 433.089844 324.648438 430.777344 324.839844 430.777344 324.839844 L 390.054688 326.273438 C 389.617188 338.640625 403.605469 358.128906 408.730469 355.320313 M 443 268.886719 C 441.253906 266.753906 432.328125 263.066406 427.671875 265.78125 C 429.34375 268.679688 430.183594 270.078125 431.621094 274 C 431.621094 274 438.34375 270.632813 443 268.886719 M 423.191406 268.699219 L 423.066406 262.507813 C 423.023438 260.5625 423.585938 258.621094 424.78125 257.085938 C 424.804688 257.058594 424.828125 257.027344 424.851563 257 C 427.320313 253.882813 431.195313 252.214844 435.171875 252.191406 L 435.285156 252.1875 C 439.328125 252.167969 443.28125 253.335938 446.691406 255.503906 C 449.25 257.132813 452.324219 259.339844 454.738281 261.828125 C 456.363281 263.503906 456.765625 266.03125 455.800781 268.160156 C 453.820313 272.535156 451.148438 277.035156 451.148438 277.035156 C 448.238281 277.421875 435.238281 284.210938 435.238281 284.210938 C 435.238281 284.210938 437.566406 289.839844 430.777344 293.910156 C 431.359375 290.03125 429.03125 286.152344 429.03125 286.152344 C 417.816406 293.035156 411.109375 297.660156 402.285156 309.640625 C 402.023438 309.996094 401.921875 310.453125 402.007813 310.890625 C 402.152344 311.621094 402.804688 312.148438 403.550781 312.152344 C 454.640625 312.261719 471.320313 310.101563 476.242188 309.125 C 476.921875 308.992188 477.429688 309.734375 477.058594 310.316406 C 474.964844 313.621094 470.375 320.84375 469.1875 322.625 C 452.894531 323.789063 418.75 341.246094 414.09375 347.648438 C 415.644531 352.691406 424.570313 360.648438 432.328125 362.394531 L 432.328125 376.941406 C 411.570313 376.75 400.707031 365.886719 393.917969 358.511719 C 387.128906 351.140625 382.472656 329.996094 382.472656 329.996094 C 382.472656 332.515625 382.277344 340.664063 376.457031 348.621094 C 370.636719 356.574219 359.386719 369.570313 347.164063 376.554688 C 334.941406 383.539063 326.792969 382.375 322.71875 377.914063 C 318.644531 373.449219 316.929688 364.90625 317.480469 356.765625 C 318.3125 344.507813 326.601563 324.5625 326.601563 324.5625 L 327.570313 326.308594 C 327.375 328.636719 321.167969 345.320313 321.363281 353.664063 C 321.554688 362.003906 324.273438 367.632813 336.492188 364.527344 C 348.714844 361.421875 382.886719 331.109375 380.921875 324.371094 C 378.953125 317.632813 371.269531 282.558594 363.652344 270.242188 L 363.847656 249.292969 C 367.921875 252.203125 374.710938 265.007813 377.816406 275.09375 C 380.921875 285.183594 388.652344 321.757813 388.652344 321.757813 L 389.179688 324.339844 L 389.816406 321.757813 L 391.203125 313.3125 C 393.140625 308.269531 398.1875 301.285156 401.289063 297.792969 C 404.394531 294.300781 414.910156 284.300781 425.96875 276.929688 C 425.96875 276.929688 424.886719 274.570313 423.519531 270.574219 C 423.3125 269.972656 423.203125 269.339844 423.191406 268.699219 "/>
<path style=" stroke:none;fill-rule:nonzero;fill:rgb(100%,100%,100%);fill-opacity:1;" d="M 339.367188 252.636719 L 357.816406 272.851563 L 357.976563 277.664063 L 349.796875 272.851563 L 349.957031 276.699219 C 349.957031 276.699219 355.25 289.214844 357.496094 294.027344 C 360.0625 301.40625 358.777344 309.109375 358.460938 312.796875 C 354.285156 327.878906 338.726563 338.949219 324.285156 351.621094 C 312.894531 360.285156 303.75 368.308594 288.671875 374.402344 C 262.839844 378.894531 244.390625 378.414063 241.824219 378.574219 L 243.746094 376.648438 C 243.746094 376.648438 284.820313 362.210938 296.371094 354.351563 C 312.574219 344.242188 347.871094 318.734375 355.890625 308.304688 C 348.191406 301.246094 338.085938 269.960938 338.085938 269.960938 L 336.320313 268.519531 L 338.085938 252.476563 "/>
<path style=" stroke:none;fill-rule:nonzero;fill:rgb(100%,100%,100%);fill-opacity:1;" d="M 213.863281 266.929688 C 200.617188 245.695313 195.535156 262.574219 195.355469 266.566406 Z M 325.101563 256.039063 C 324.191406 265.476563 319.476563 275.636719 312.035156 280.902344 C 309.855469 281.625 297.519531 285.074219 293.890625 269.648438 C 291.710938 273.460938 288.445313 287.613281 273.566406 289.066406 C 260.484375 290.34375 257.21875 272.546875 256.621094 268.226563 C 256.539063 267.632813 256.175781 267.125 255.640625 266.859375 C 255.054688 266.566406 254.363281 266.617188 253.820313 266.980469 C 244.527344 273.203125 227.835938 280.355469 227.835938 280.355469 L 228.019531 302.3125 C 225.113281 320.820313 211.6875 334.433594 186.644531 348.585938 C 176.058594 354.570313 159.285156 355.886719 149.761719 347.722656 C 143.988281 342.769531 138.910156 335.601563 137.46875 323.726563 C 137.117188 317.425781 137.253906 307.644531 138.558594 299.226563 C 139.957031 290.1875 142.550781 282.714844 142.550781 282.714844 L 145.816406 279.628906 C 145.816406 279.628906 139.101563 299.773438 142.003906 313.746094 C 144.90625 327.71875 156.523438 334.796875 160.878906 335.882813 C 165.230469 336.972656 172.671875 336.972656 178.660156 335.339844 C 184.40625 333.773438 206.535156 323.679688 221.625 300.730469 C 222.886719 298.808594 223.457031 296.507813 223.269531 294.21875 C 222.886719 289.589844 222.109375 288.265625 219.125 282.898438 C 201.542969 283.359375 194.710938 285.527344 191.160156 277.472656 C 189.9375 274.699219 189.519531 271.636719 189.765625 268.613281 C 190.449219 260.222656 193.230469 240.003906 204.246094 240.433594 C 217.941406 240.96875 223.820313 259.367188 225.046875 263.9375 C 225.210938 264.558594 225.738281 265.019531 226.378906 265.085938 C 226.386719 265.085938 226.394531 265.085938 226.398438 265.089844 C 227.824219 265.234375 229.257813 264.902344 230.488281 264.171875 C 240.351563 258.332031 254.121094 251.902344 257.414063 250.386719 C 257.890625 250.164063 258.414063 250.078125 258.9375 250.132813 L 260.640625 250.3125 C 262.171875 250.46875 263.324219 251.78125 263.269531 253.316406 C 263.152344 256.765625 263.203125 261.71875 264.308594 266.566406 C 274.289063 283.804688 290.984375 263.117188 295.886719 247.328125 C 297.699219 245.695313 297.699219 247.328125 297.699219 247.328125 C 299.332031 274.003906 314.757813 268.5625 318.75 261.121094 C 317.480469 256.402344 314.394531 252.410156 314.394531 252.410156 L 320.382813 238.257813 C 320.382813 238.257813 326.007813 244.0625 325.101563 256.039063 "/>
<path style=" stroke:none;fill-rule:nonzero;fill:rgb(100%,100%,100%);fill-opacity:1;" d="M 217.167969 138.464844 L 229.773438 167.71875 L 229.773438 172.195313 C 229.773438 172.386719 229.554688 172.496094 229.398438 172.382813 L 224.898438 169.058594 C 224.597656 168.835938 224.179688 169.078125 224.230469 169.445313 C 225.761719 180.53125 239.722656 281.59375 240.890625 294.199219 C 242.125 307.539063 241.386719 319.394531 239.65625 326.558594 C 232.738281 345.085938 224.835938 352.992188 214.707031 361.636719 C 204.578125 370.285156 195.683594 375.71875 183.332031 380.164063 C 170.980469 384.613281 147.515625 383.871094 136.644531 369.789063 C 125.773438 355.710938 118.859375 334.710938 134.175781 287.28125 L 136.644531 285.304688 C 136.644531 285.304688 128.316406 314.519531 131.949219 336.933594 C 136.398438 364.355469 164.324219 365.152344 167.769531 364.847656 C 176.167969 364.109375 207.046875 361.886719 236.9375 318.40625 C 231.011719 274.929688 216.453125 172.515625 215.695313 166.484375 L 212.132813 154.234375 C 211.878906 153.363281 211.886719 152.4375 212.164063 151.570313 L 216.308594 138.507813 C 216.4375 138.101563 217 138.074219 217.167969 138.464844 "/>
<path style=" stroke:none;fill-rule:nonzero;fill:rgb(100%,100%,100%);fill-opacity:1;" d="M 467.601563 140.128906 L 479.777344 169.277344 L 479.777344 173.605469 L 474.765625 168.207031 C 474.542969 167.96875 474.234375 167.835938 473.910156 167.835938 C 473.199219 167.835938 472.652344 168.457031 472.753906 169.160156 C 474.796875 183.234375 492.40625 304.871094 493.378906 314.578125 C 493.378906 314.578125 494.617188 329.621094 494.203125 334.777344 C 493.867188 339 491.449219 347.238281 490.589844 350.074219 C 490.410156 350.660156 489.871094 351.058594 489.257813 351.058594 C 488.46875 351.058594 487.839844 350.414063 487.863281 349.628906 C 488.011719 344.742188 488.378906 328.609375 486.988281 320.96875 C 485.339844 311.898438 463.699219 158.558594 463.699219 158.558594 L 461.640625 153.613281 L 464.660156 140.382813 C 464.824219 139.679688 465.449219 139.179688 466.171875 139.179688 C 466.796875 139.179688 467.359375 139.554688 467.601563 140.128906 "/>
<path style=" stroke:none;fill-rule:nonzero;fill:rgb(100%,100%,100%);fill-opacity:1;" d="M 403.984375 136.203125 L 415.351563 155.148438 L 415.351563 159.78125 L 410.429688 155.875 L 409.492188 157.03125 C 409.492188 157.03125 420.851563 185.832031 422.300781 193.648438 C 422.300781 193.648438 423.195313 201.78125 422.511719 206.316406 C 421.828125 210.851563 414.242188 226.308594 404.613281 228.359375 C 394.984375 230.410156 388.460938 228.050781 385.230469 226.0625 C 382 224.074219 374.171875 213.386719 372.929688 203.941406 C 372.929688 203.941406 370.691406 223.015625 360.8125 229.914063 C 350.933594 236.808594 339.6875 236.375 330.492188 226.246094 C 321.296875 216.121094 322.789063 203.941406 322.789063 202.265625 C 322.789063 200.972656 324.152344 190.171875 324.78125 185.277344 C 324.984375 183.671875 327.238281 169.039063 327.238281 169.039063 C 327.160156 168.535156 326.503906 167.9375 324.21875 171.015625 C 324.21875 171.015625 319.992188 180.023438 318.875 185.242188 C 317.757813 190.460938 315.894531 198.972656 315.210938 204.378906 C 314.527344 209.78125 312.601563 221.773438 310.425781 226.621094 C 308.25 231.464844 299.242188 239.046875 293.152344 227.179688 C 287.066406 215.3125 286.832031 200.625 286.585938 193.914063 C 286.335938 187.203125 287.433594 177.917969 287.433594 177.917969 L 289.148438 175.578125 C 289.246094 175.445313 289.457031 175.519531 289.453125 175.683594 C 289.390625 178.40625 289.144531 191.015625 289.859375 197.421875 C 290.667969 204.628906 293.691406 212.054688 295.078125 214.382813 C 297.519531 218.472656 304.089844 218.605469 306.761719 214.941406 C 309.433594 211.273438 312.972656 193.070313 314.339844 187.417969 C 315.707031 181.761719 323.535156 153.679688 332.234375 153.058594 C 332.660156 153.039063 333.40625 153.09375 333.539063 153.183594 C 333.667969 153.273438 334.035156 153.617188 334.035156 154.363281 C 334.035156 155.109375 330.742188 188.410156 330.367188 193.320313 C 329.996094 198.226563 330.121094 201.394531 332.355469 207.671875 C 334.59375 213.945313 340.480469 216.285156 342.484375 216.988281 C 347.046875 218.597656 351.902344 218.199219 356.605469 216.160156 C 359.414063 214.945313 362.429688 211.648438 365.097656 208.167969 C 367.769531 204.6875 369.757813 199.59375 370.132813 196.425781 C 370.476563 193.496094 364.984375 162.140625 363.953125 155.183594 C 363.839844 154.425781 363.863281 153.652344 364.03125 152.90625 C 364.984375 148.699219 366.21875 144.898438 367.71875 141.488281 C 367.898438 141.078125 368.308594 140.820313 368.757813 140.820313 C 369.183594 140.820313 369.570313 141.054688 369.761719 141.433594 C 370.589844 143.066406 372.796875 147.601563 373.550781 150.761719 C 374.480469 154.675781 377.710938 188.90625 378.644531 192.820313 C 379.574219 196.734375 382.246094 205.433594 388.957031 211.148438 C 395.667969 216.867188 412.132813 213.074219 416.976563 206.117188 C 416.976563 206.117188 418.097656 204.066406 418.03125 202.265625 C 418.03125 202.265625 413.1875 192.078125 409.273438 181.578125 C 405.359375 171.078125 401.570313 154.613281 401.132813 150.265625 L 399.890625 149.269531 L 401.753906 136.648438 C 401.839844 136.058594 402.34375 135.621094 402.941406 135.617188 C 403.367188 135.613281 403.765625 135.835938 403.984375 136.203125 "/>
<path style=" stroke:none;fill-rule:nonzero;fill:rgb(100%,100%,100%);fill-opacity:1;" d="M 262.289063 138.621094 L 274.464844 167.769531 L 274.464844 172.097656 L 269.449219 166.699219 C 269.230469 166.460938 268.921875 166.328125 268.597656 166.328125 C 267.886719 166.328125 267.339844 166.949219 267.441406 167.652344 C 269.480469 181.726563 287.09375 303.363281 288.066406 313.070313 C 288.066406 313.070313 289.304688 328.117188 288.890625 333.269531 C 288.554688 337.492188 286.136719 345.730469 285.277344 348.566406 C 285.097656 349.152344 284.558594 349.550781 283.945313 349.550781 C 283.15625 349.550781 282.527344 348.90625 282.550781 348.121094 C 282.699219 343.234375 283.066406 327.101563 281.675781 319.460938 C 280.027344 310.390625 258.386719 157.054688 258.386719 157.054688 L 256.328125 152.105469 L 259.347656 138.875 C 259.511719 138.171875 260.136719 137.671875 260.859375 137.671875 C 261.484375 137.671875 262.046875 138.046875 262.289063 138.621094 "/>
<path style=" stroke:none;fill-rule:nonzero;fill:rgb(100%,100%,100%);fill-opacity:1;" d="M 235.128906 136.382813 L 246.496094 155.328125 L 246.496094 159.960938 L 241.574219 156.050781 L 240.636719 157.210938 C 240.636719 157.210938 251.996094 186.011719 253.445313 193.824219 C 253.445313 193.824219 254.34375 201.957031 253.65625 206.492188 C 252.976563 211.027344 245.390625 226.488281 235.757813 228.539063 C 226.128906 230.589844 219.605469 228.226563 216.371094 226.238281 C 213.144531 224.25 205.3125 213.566406 204.074219 204.121094 C 204.074219 204.121094 201.835938 223.195313 191.957031 230.089844 C 182.078125 236.988281 170.835938 236.554688 161.636719 226.425781 C 152.441406 216.296875 153.933594 204.121094 153.933594 202.445313 C 153.933594 201.152344 155.296875 190.351563 155.925781 185.453125 C 156.128906 183.847656 158.382813 169.21875 158.382813 169.21875 C 158.304688 168.714844 157.644531 168.117188 155.363281 171.191406 C 155.363281 171.191406 151.140625 180.199219 150.019531 185.421875 C 148.902344 190.640625 147.039063 199.152344 146.355469 204.554688 C 145.671875 209.960938 143.746094 221.953125 141.570313 226.796875 C 139.394531 231.644531 130.386719 239.222656 124.296875 227.355469 C 118.210938 215.492188 117.976563 200.800781 117.730469 194.09375 C 117.480469 187.382813 118.578125 178.097656 118.578125 178.097656 L 120.292969 175.757813 C 120.394531 175.625 120.601563 175.699219 120.597656 175.863281 C 120.535156 178.585938 120.289063 191.191406 121.003906 197.597656 C 121.8125 204.804688 124.839844 212.234375 126.226563 214.558594 C 128.664063 218.652344 135.234375 218.785156 137.90625 215.117188 C 140.578125 211.453125 144.117188 193.25 145.484375 187.59375 C 146.851563 181.941406 154.679688 153.859375 163.378906 153.238281 C 163.804688 153.214844 164.554688 153.269531 164.683594 153.363281 C 164.8125 153.453125 165.179688 153.796875 165.179688 154.542969 C 165.179688 155.289063 161.886719 188.589844 161.515625 193.496094 C 161.140625 198.40625 161.265625 201.574219 163.503906 207.847656 C 165.738281 214.125 171.628906 216.464844 173.628906 217.167969 C 178.191406 218.777344 183.046875 218.378906 187.75 216.339844 C 190.5625 215.121094 193.574219 211.824219 196.242188 208.347656 C 198.914063 204.867188 200.902344 199.773438 201.277344 196.605469 C 201.621094 193.675781 196.128906 162.320313 195.097656 155.363281 C 194.984375 154.605469 195.007813 153.828125 195.175781 153.082031 C 196.128906 148.875 197.363281 145.078125 198.863281 141.667969 C 199.046875 141.257813 199.453125 140.996094 199.902344 140.996094 C 200.328125 140.996094 200.714844 141.230469 200.90625 141.613281 C 201.730469 143.246094 203.941406 147.78125 204.695313 150.9375 C 205.625 154.851563 208.855469 189.085938 209.789063 193 C 210.71875 196.914063 213.390625 205.613281 220.101563 211.328125 C 226.8125 217.042969 243.277344 213.253906 248.121094 206.296875 C 248.121094 206.296875 249.242188 204.246094 249.179688 202.445313 C 249.179688 202.445313 244.332031 192.253906 240.417969 181.753906 C 236.503906 171.253906 232.714844 154.789063 232.277344 150.441406 L 231.035156 149.445313 L 232.898438 136.824219 C 232.984375 136.238281 233.488281 135.800781 234.085938 135.796875 C 234.511719 135.792969 234.910156 136.015625 235.128906 136.382813 "/>
</g>
</svg>
